<svg width="225" height="188" viewBox="0 0 225 188" fill="none" xmlns="http://www.w3.org/2000/svg">
<g clip-path="url(#clip0)">
<path d="M42 186.774V175.399H45.984C47.0885 175.325 48.1883 175.602 49.125 176.192C49.4808 176.462 49.7646 176.815 49.9513 177.22C50.1379 177.626 50.2216 178.071 50.195 178.516C50.205 179.04 50.055 179.554 49.765 179.989C49.4726 180.419 49.0529 180.745 48.565 180.923C49.114 181.047 49.6021 181.359 49.944 181.806C50.2874 182.277 50.4634 182.849 50.444 183.431C50.4765 183.898 50.3995 184.365 50.2193 184.796C50.0391 185.228 49.7606 185.611 49.406 185.915C48.5369 186.531 47.4851 186.833 46.422 186.774H42ZM44.343 181.821V184.891H46.351C46.8153 184.919 47.2743 184.78 47.644 184.497C47.7991 184.363 47.9216 184.195 48.0022 184.006C48.0827 183.817 48.1193 183.612 48.109 183.407C48.1354 183.19 48.1114 182.97 48.039 182.763C47.9666 182.556 47.8476 182.369 47.6913 182.216C47.535 182.063 47.3456 181.947 47.1376 181.879C46.9297 181.81 46.7088 181.791 46.492 181.821H44.343ZM44.343 180.165H46.078C47.26 180.145 47.851 179.673 47.851 178.751C47.8705 178.543 47.8399 178.334 47.7618 178.14C47.6837 177.947 47.5603 177.775 47.402 177.638C46.9771 177.378 46.4808 177.259 45.984 177.297H44.343V180.165ZM69.554 181.344C69.5758 182.358 69.3729 183.364 68.96 184.289C68.5983 185.094 68.0069 185.773 67.26 186.242C66.4976 186.708 65.6182 186.947 64.725 186.93C63.8368 186.945 62.9625 186.709 62.202 186.25C61.4519 185.785 60.8546 185.11 60.484 184.309C60.0634 183.401 59.8525 182.41 59.867 181.409V180.844C59.8457 179.826 60.0524 178.816 60.472 177.887C60.8374 177.08 61.4329 176.397 62.184 175.926C62.9447 175.464 63.8209 175.227 64.711 175.242C65.6011 175.227 66.4773 175.464 67.238 175.926C67.9887 176.398 68.5839 177.08 68.949 177.887C69.3681 178.813 69.5748 179.821 69.554 180.836V181.344ZM67.184 180.829C67.2454 179.879 67.0222 178.933 66.543 178.11C66.3441 177.811 66.0713 177.568 65.7511 177.405C65.4308 177.243 65.074 177.165 64.715 177.18C64.3585 177.165 64.004 177.241 63.6854 177.402C63.3667 177.563 63.0946 177.803 62.895 178.098C62.4156 178.911 62.19 179.848 62.247 180.789V181.344C62.193 182.288 62.4158 183.226 62.888 184.044C63.0842 184.352 63.3578 184.603 63.6814 184.772C64.0051 184.94 64.3674 185.021 64.732 185.005C65.0885 185.021 65.4429 184.944 65.7606 184.781C66.0784 184.619 66.3486 184.377 66.545 184.079C67.0188 183.262 67.2417 182.323 67.186 181.379L67.184 180.829ZM88.606 181.345C88.6278 182.359 88.4249 183.365 88.012 184.29C87.6503 185.095 87.0589 185.774 86.312 186.243C85.5496 186.709 84.6702 186.948 83.777 186.931C82.8888 186.946 82.0145 186.71 81.254 186.251C80.5036 185.786 79.9059 185.112 79.535 184.31C79.1144 183.402 78.9035 182.411 78.918 181.41V180.844C78.8967 179.826 79.1034 178.816 79.523 177.887C79.8881 177.08 80.4833 176.398 81.234 175.926C81.9947 175.464 82.8709 175.227 83.761 175.242C84.6511 175.227 85.5273 175.464 86.288 175.926C87.0387 176.398 87.6339 177.08 87.999 177.887C88.4181 178.813 88.6248 179.821 88.604 180.836L88.606 181.345ZM86.231 180.829C86.2906 179.879 86.0653 178.932 85.584 178.11C85.3851 177.811 85.1123 177.568 84.7921 177.405C84.4718 177.243 84.115 177.165 83.756 177.18C83.3995 177.165 83.045 177.241 82.7264 177.402C82.4077 177.563 82.1356 177.803 81.936 178.098C81.455 178.911 81.228 179.848 81.284 180.79V181.345C81.23 182.289 81.4528 183.227 81.925 184.045C82.1212 184.353 82.3948 184.604 82.7184 184.773C83.0421 184.941 83.4044 185.022 83.769 185.006C84.1255 185.023 84.4801 184.946 84.7982 184.784C85.1164 184.622 85.3871 184.381 85.584 184.083C86.0578 183.266 86.2807 182.327 86.225 181.383L86.231 180.829ZM106.203 177.297H102.718V186.774H100.375V177.297H96.937V175.397H106.203V177.297ZM124.25 182.985C124.233 183.534 124.104 184.073 123.871 184.57C123.637 185.067 123.305 185.511 122.894 185.874C121.986 186.61 120.839 186.986 119.672 186.93C119.024 186.962 118.378 186.845 117.782 186.59C117.186 186.335 116.656 185.947 116.231 185.457C115.339 184.305 114.893 182.869 114.977 181.414V180.714C114.957 179.72 115.154 178.733 115.555 177.823C115.902 177.034 116.478 176.366 117.207 175.905C117.96 175.45 118.827 175.218 119.707 175.237C120.859 175.182 121.99 175.559 122.879 176.292C123.712 177.059 124.212 178.122 124.27 179.253H121.922C121.924 178.662 121.705 178.092 121.309 177.653C120.858 177.288 120.283 177.109 119.704 177.153C119.364 177.132 119.025 177.198 118.717 177.345C118.41 177.492 118.146 177.715 117.95 177.993C117.502 178.785 117.294 179.69 117.35 180.598V181.474C117.282 182.409 117.475 183.344 117.909 184.174C118.102 184.459 118.366 184.687 118.676 184.837C118.985 184.986 119.328 185.052 119.671 185.026C120.255 185.071 120.834 184.892 121.292 184.526C121.684 184.111 121.904 183.562 121.905 182.991L124.25 182.985ZM140.211 184.43H136.101L135.32 186.774H132.828L137.062 175.399H139.234L143.492 186.774H141L140.211 184.43ZM136.734 182.53H139.578L138.148 178.274L136.734 182.53ZM155.617 175.397L158.539 183.647L161.445 175.397H164.523V186.774H162.171V183.665L162.405 178.298L159.336 186.774H157.727L154.664 178.305L154.898 183.664V186.774H152.554V175.399L155.617 175.397ZM176.917 182.764V186.774H174.573V175.399H179.011C179.788 175.383 180.559 175.543 181.265 175.868C181.886 176.154 182.408 176.618 182.765 177.2C183.119 177.794 183.3 178.474 183.288 179.165C183.311 179.663 183.22 180.16 183.021 180.617C182.823 181.074 182.522 181.479 182.143 181.802C181.236 182.492 180.112 182.835 178.975 182.767L176.917 182.764ZM176.917 180.864H179.011C179.522 180.9 180.027 180.744 180.429 180.427C180.596 180.267 180.727 180.072 180.811 179.856C180.896 179.64 180.932 179.409 180.917 179.177C180.928 178.931 180.89 178.684 180.806 178.452C180.721 178.22 180.592 178.007 180.425 177.825C180.247 177.649 180.034 177.511 179.8 177.419C179.567 177.328 179.317 177.285 179.066 177.294H176.914L176.917 180.864Z" fill="black"/>
<path d="M98.217 150.209C98.2724 149.491 98.1421 148.771 97.8386 148.117C97.5351 147.464 97.0686 146.899 96.484 146.478C94.5969 145.267 92.5271 144.367 90.354 143.813C87.961 143.1 85.6407 142.163 83.424 141.013C78.76 138.481 76.361 135.149 76.361 130.752C76.3647 128.61 77.0151 126.519 78.227 124.752C79.6168 122.882 81.5128 121.449 83.691 120.621C88.7508 118.621 94.3907 118.669 99.416 120.754C101.588 121.727 103.437 123.299 104.747 125.285C106.084 127.241 106.739 129.583 106.613 131.948H98.084C98.1437 131.132 98.019 130.313 97.7192 129.551C97.4194 128.789 96.9521 128.105 96.352 127.548C94.9082 126.429 93.1126 125.862 91.288 125.948C89.5828 125.833 87.8894 126.303 86.488 127.281C85.9552 127.69 85.5223 128.214 85.2222 128.814C84.9221 129.414 84.7627 130.075 84.756 130.746C84.7547 131.431 84.9403 132.103 85.2927 132.69C85.6451 133.278 86.1511 133.757 86.756 134.078C88.6309 135.193 90.6497 136.045 92.756 136.61C97.556 138.076 101.156 139.81 103.284 142.074C105.403 144.199 106.6 147.073 106.616 150.074C106.69 151.695 106.364 153.31 105.667 154.775C104.969 156.24 103.921 157.51 102.616 158.474C99.3809 160.608 95.5608 161.679 91.688 161.539C88.7129 161.557 85.7654 160.968 83.026 159.807C80.6163 158.8 78.5375 157.137 77.026 155.007C75.6444 152.917 74.9456 150.449 75.026 147.944H83.555C83.555 152.475 86.22 154.744 91.684 154.744C93.33 154.888 94.9757 154.465 96.348 153.544C96.9374 153.216 97.4241 152.73 97.754 152.141C98.084 151.552 98.2442 150.884 98.217 150.209V150.209Z" fill="#04D361"/>
<path d="M207.227 148.743L204.295 151.675V161.004H196.166V122.09H204.295V141.68L205.895 139.68L213.758 130.48H223.62L212.558 143.279L224.552 161.137H215.223L207.227 148.743Z" fill="#04D361"/>
<path d="M179.775 137.151C181.14 137.044 182.497 137.449 183.581 138.286C184.665 139.123 185.398 140.334 185.639 141.682C185.639 141.815 185.639 141.815 185.772 141.815H193.235C193.368 141.815 193.368 141.815 193.368 141.682C192.835 134.217 187.904 129.951 179.775 129.951C177.705 129.895 175.647 130.282 173.739 131.087C171.832 131.892 170.118 133.096 168.714 134.617C166.032 137.825 164.61 141.899 164.714 146.078C164.714 155.678 170.314 161.67 179.24 161.67C187.103 161.67 192.3 157.406 193.1 150.076V149.943H185.9C185.767 149.943 185.767 149.943 185.767 150.076C185.234 153.01 183.234 154.476 179.767 154.476C174.167 154.476 173.237 149.276 173.237 146.076C173.104 141.545 174.969 137.147 179.767 137.147" fill="#04D361"/>
<path d="M161.784 161.403H155.92C154.834 161.341 153.813 160.863 153.068 160.07C152.324 159.276 151.913 158.227 151.92 157.138V156.871C149.92 159.671 146.72 161.136 142.458 161.136C136.458 161.136 132.596 157.536 132.596 152.207C132.596 147.007 136.196 143.678 143.257 142.479L148.321 141.546C150.721 141.146 151.253 140.746 151.253 139.28C151.253 137.414 149.521 136.48 146.453 136.48C143.253 136.48 141.522 137.413 141.522 139.412C141.522 139.545 141.522 139.545 141.389 139.545H133.926C133.793 139.545 133.793 139.545 133.793 139.412C133.793 133.412 138.857 129.684 146.853 129.684C155.515 129.684 159.646 133.415 159.646 141.145V153.274C159.646 154.34 160.179 155.006 161.246 155.006H161.912C162.045 155.006 162.045 155.006 162.045 155.139V161.269C161.973 161.342 161.879 161.389 161.778 161.402L161.784 161.403ZM151.523 146.877C151.029 147.135 150.48 147.272 149.923 147.277L145.523 148.077C142.458 148.743 141.123 149.809 141.123 151.677C141.123 154.209 143.123 154.742 144.854 154.742C146.655 154.736 148.381 154.017 149.655 152.743C150.929 151.47 151.647 149.744 151.654 147.942V146.877H151.523Z" fill="#04D361"/>
<path d="M129.667 137.149C129.8 137.149 129.8 137.149 129.8 137.016V130.086C129.8 129.953 129.8 129.953 129.667 129.953H122.737V122.353C122.737 122.22 122.737 122.22 122.604 122.22H115.004C114.871 122.22 114.871 122.22 114.871 122.353V129.953H109.671C109.538 129.953 109.538 129.953 109.538 130.086V137.016C109.538 137.149 109.538 137.149 109.671 137.149H114.871V153.274C114.871 160.074 118.736 161.536 124.599 161.536H129.799C129.932 161.536 129.932 161.536 129.932 161.403V154.603C129.932 154.47 129.932 154.47 129.799 154.47H125.799C123.533 154.47 122.867 153.937 122.867 151.67V137.149H129.667Z" fill="#04D361"/>
<path d="M57.171 161.536C48.109 161.536 41.979 155.136 41.979 145.544C41.979 136.215 48.379 129.685 57.171 129.685C66.233 129.685 72.363 136.085 72.363 145.544C72.23 154.607 65.833 161.536 57.171 161.536ZM57.171 136.482C52.24 136.482 49.708 140.213 49.708 145.544C49.708 150.875 52.24 154.744 57.171 154.744C62.771 154.744 64.634 151.013 64.634 145.544C64.501 140.213 62.369 136.482 57.171 136.482Z" fill="black"/>
<path d="M19.857 161.536C17.0836 161.515 14.3343 161.019 11.728 160.07C9.34475 159.141 7.20336 157.683 5.465 155.806C3.65786 153.907 2.29208 151.632 1.465 149.143C0.515643 146.399 0.0208037 143.517 0 140.613C0.0209146 137.752 0.516306 134.913 1.466 132.213C2.42517 129.799 3.8261 127.584 5.597 125.683C7.33617 123.808 9.47787 122.352 11.861 121.424C14.3489 120.371 17.0225 119.827 19.724 119.824C21.7931 119.828 23.8533 120.097 25.854 120.624C28.5798 121.4 31.0853 122.805 33.1686 124.726C35.2519 126.647 36.8547 129.031 37.848 131.685H28.12C27.203 130.387 26.0222 129.296 24.655 128.485C23.183 127.684 21.531 127.271 19.855 127.285C18.303 127.288 16.7728 127.651 15.3847 128.345C13.9966 129.039 12.7884 130.045 11.855 131.285C10.8454 132.507 10.0765 133.909 9.589 135.416C9.06418 137.008 8.79419 138.672 8.789 140.347C8.76176 143.669 9.84 146.906 11.854 149.547C12.7906 150.794 13.9965 151.812 15.3817 152.528C16.7669 153.243 18.2956 153.636 19.854 153.678C21.2005 153.722 22.5422 153.497 23.8008 153.016C25.0593 152.535 26.2094 151.809 27.184 150.878C29.0307 148.984 30.2417 146.562 30.649 143.948H39.311C39.3169 144.135 39.2709 144.319 39.178 144.481C39.1542 145.024 39.0646 145.561 38.911 146.081C38.1443 150.437 35.8242 154.367 32.381 157.142C28.8519 160.032 24.4182 161.588 19.857 161.536V161.536Z" fill="black"/>
<path d="M19.057 146.61L18.924 138.881H39.314V144.081L33.45 144.747V146.481H19.057V146.61Z" fill="black"/>
<path d="M148.888 22.656C137.961 16.656 126.899 10.529 115.971 4.532C114.863 3.94075 113.627 3.63145 112.371 3.63145C111.115 3.63145 109.879 3.94075 108.771 4.532C97.844 10.532 86.916 16.659 75.988 22.656C74.9403 23.2141 74.0568 24.0366 73.4253 25.0418C72.7938 26.047 72.4361 27.1999 72.3879 28.386V64.901C72.4053 66.1282 72.7635 67.3264 73.4224 68.3618C74.0812 69.3973 75.0148 70.2293 76.119 70.765C79.184 72.365 82.119 74.097 85.182 75.696L103.04 85.558L108.504 88.623C108.877 88.8556 109.281 89.035 109.704 89.156L110.237 89.423H110.37C112.195 89.9247 114.141 89.7349 115.834 88.89C126.762 82.89 137.69 76.763 148.618 70.766C149.716 70.2223 150.644 69.3883 151.302 68.3546C151.959 67.3209 152.322 66.1269 152.349 64.902V28.387C152.311 27.2154 151.972 26.0733 151.366 25.0699C150.76 24.0664 149.907 23.2353 148.888 22.656V22.656ZM101.579 63.569L93.05 71.432C92.9974 71.4825 92.9342 71.5206 92.865 71.5436C92.7958 71.5666 92.7224 71.5739 92.65 71.565H92.517C92.477 71.5536 92.4404 71.5327 92.4104 71.504C92.3804 71.4752 92.3578 71.4396 92.3447 71.4002C92.3316 71.3607 92.3284 71.3187 92.3352 71.2777C92.342 71.2367 92.3588 71.198 92.384 71.165L95.449 59.971C95.592 59.3605 95.887 58.7961 96.3066 58.3302C96.7262 57.8643 97.2568 57.5119 97.849 57.306L97.9819 57.173C98.1382 57.1293 98.3019 57.1185 98.4625 57.1414C98.6231 57.1643 98.7772 57.2203 98.915 57.306C99.448 57.706 99.848 57.972 100.381 58.372C100.884 58.7322 101.42 59.0446 101.981 59.305C102.136 59.3743 102.269 59.4863 102.363 59.6279C102.458 59.7695 102.51 59.9349 102.514 60.105L102.78 60.372C102.846 60.9617 102.771 61.5586 102.563 62.114C102.354 62.6694 102.017 63.1676 101.579 63.568V63.569ZM110.379 55.839C110.246 55.839 110.246 55.972 110.113 55.972L107.448 55.705C107.303 55.6871 107.156 55.7017 107.018 55.7479C106.879 55.7941 106.753 55.8707 106.648 55.972L103.716 58.637C103.663 58.6875 103.6 58.7257 103.531 58.7487C103.462 58.7717 103.388 58.779 103.316 58.77C101.893 58.1297 100.551 57.3242 99.316 56.37C99.183 56.237 99.049 56.103 99.183 55.97L100.115 52.105C100.158 51.9707 100.169 51.828 100.146 51.6888C100.123 51.5496 100.066 51.418 99.9819 51.305L98.516 49.039C98.516 48.906 98.3829 48.906 98.3829 48.772C98.3829 48.505 98.516 48.239 98.516 47.839V47.706C98.516 47.706 98.649 47.573 98.649 47.706C99.849 48.506 104.912 51.571 104.912 51.571C104.912 51.571 109.976 54.636 111.176 55.436C111.227 55.4886 111.265 55.5518 111.288 55.621C111.311 55.6902 111.318 55.7636 111.309 55.836L110.379 55.839ZM128.236 31.451L128.369 31.584L131.035 31.984H131.168C131.701 32.117 132.368 32.784 131.434 33.984L120.24 49.176C120.084 49.2819 119.895 49.329 119.707 49.309L115.176 46.509C114.954 46.3774 114.701 46.308 114.443 46.308C114.185 46.308 113.932 46.3774 113.71 46.509L112.244 47.442C112.022 47.5729 111.769 47.6419 111.511 47.6419C111.253 47.6419 111 47.5729 110.778 47.442C110.363 47.1272 109.845 46.9799 109.326 47.0294C108.807 47.0789 108.326 47.3214 107.978 47.709C107.054 48.4306 105.927 48.8444 104.756 48.8923C103.585 48.9402 102.428 48.6197 101.448 47.976L95.448 44.245L95.182 43.978C94.9998 43.8252 94.8509 43.6365 94.7448 43.4237C94.6386 43.2108 94.5773 42.9784 94.5648 42.7409C94.5523 42.5034 94.5889 42.2659 94.6722 42.0431C94.7555 41.8203 94.8837 41.6171 95.049 41.446V41.446C95.319 41.0099 95.7485 40.6963 96.2462 40.5719C96.7439 40.4475 97.2705 40.5222 97.714 40.78L98.9139 41.446H99.047C99.18 41.579 99.313 41.446 99.313 41.313L99.579 39.713C99.579 39.58 99.579 39.446 99.446 39.446L99.1801 39.313C98.9279 39.1425 98.7477 38.8848 98.6738 38.5896C98.6 38.2943 98.6378 37.9821 98.78 37.713C98.8498 37.5902 98.943 37.4825 99.0546 37.3959C99.1661 37.3093 99.2937 37.2455 99.4299 37.2084C99.5662 37.1712 99.7083 37.1613 99.8484 37.1793C99.9884 37.1972 100.124 37.2427 100.246 37.313L108.375 42.244H108.508C108.641 42.377 108.775 42.244 108.908 42.111L117.308 30.65C117.478 30.4335 117.706 30.2688 117.965 30.1747C118.224 30.0805 118.504 30.0605 118.774 30.117L120.906 30.384L122.372 30.651C122.372 30.784 122.506 30.651 122.506 30.651C122.639 30.518 122.639 30.518 122.506 30.518C122.246 30.3198 122.073 30.0286 122.024 29.7056C121.974 29.3827 122.052 29.053 122.24 28.786L125.04 24.921C125.203 24.7309 125.409 24.5831 125.641 24.4903C125.873 24.3974 126.124 24.3623 126.373 24.388L131.703 25.188C131.806 25.19 131.907 25.2151 132 25.2612C132.092 25.3074 132.173 25.3736 132.236 25.455L132.369 25.588C132.423 25.6576 132.462 25.7372 132.484 25.8221C132.507 25.907 132.512 25.9956 132.499 26.0825C132.487 26.1695 132.457 26.2531 132.412 26.3284C132.367 26.4037 132.307 26.4692 132.236 26.521C132.236 26.521 129.57 30.121 128.636 31.452V31.585C127.966 31.184 127.966 31.318 128.232 31.451H128.236Z" fill="#04D361"/>
<path d="M123.302 8.66199C127.433 5.46199 129.702 4.797 133.164 4.797C134.179 4.79686 135.181 5.02447 136.096 5.46301C139.162 7.19501 140.496 12.393 139.561 19.856L143.961 22.256C145.427 11.595 143.428 4.26501 138.23 1.33301C136.602 0.42609 134.763 -0.0338228 132.9 1.3283e-07C128.235 1.3283e-07 124.5 1.333 118.64 6C120.37 6.93 121.837 7.86299 123.302 8.66199Z" fill="black"/>
<path d="M72.3951 55.305C66.265 52.373 64.795 49.974 64.795 46.643C64.795 43.178 68.26 39.843 74.524 36.915V31.584C65.195 35.449 59.998 40.784 59.998 46.51C59.998 52.374 63.063 56.505 72.392 60.37L72.3951 55.305Z" fill="black"/>
<path d="M84.788 17.725C83.988 10.395 85.3211 7.33002 88.5191 5.59802C89.3986 5.06473 90.4274 4.83103 91.4511 4.932C94.9161 4.932 98.9141 6.798 103.045 9.996L107.445 7.596C101.715 2.932 95.984 0.266015 91.32 0.266015C89.4565 0.23211 87.6173 0.692023 85.989 1.59902C80.789 4.66402 78.6601 9.728 80.2581 20.389C81.8561 19.324 83.327 18.524 84.788 17.725Z" fill="black"/>
<path d="M152.22 32.917V37.981C158.35 40.913 159.82 43.312 159.82 46.643C159.82 50.108 156.355 53.443 150.092 56.371V61.702C159.42 57.837 164.618 52.502 164.618 46.776C164.614 40.917 161.682 36.782 152.22 32.917Z" fill="black"/>
<path d="M101.446 84.49C97.314 87.69 95.0461 88.355 91.5841 88.355C90.5692 88.3552 89.5672 88.1276 88.652 87.689C85.452 85.957 84.252 80.626 85.187 73.296C83.721 72.496 82.122 71.696 80.656 70.764C79.19 81.292 81.1891 88.622 86.2561 91.553C87.8843 92.46 89.7235 92.9199 91.587 92.886C96.251 93.019 100.116 91.686 105.98 87.022L101.446 84.49Z" fill="black"/>
<path d="M139.827 75.561C140.627 82.891 139.161 85.956 136.095 87.688C135.216 88.2214 134.187 88.4551 133.163 88.354C129.698 88.354 125.7 86.488 121.436 83.29C119.97 84.09 118.504 84.89 116.905 85.69C122.769 90.49 128.366 93.153 133.163 93.153C135.027 93.1868 136.866 92.7269 138.494 91.82C143.694 88.755 145.957 83.691 144.224 73.03C142.892 73.829 141.293 74.629 139.827 75.561Z" fill="black"/>
</g>
<defs>
<clipPath id="clip0">
<rect width="224.552" height="187.156" fill="white"/>
</clipPath>
</defs>
</svg>
